<?xml version="1.0" encoding="UTF-8"?>
<svg xmlns="http://www.w3.org/2000/svg" xmlns:xlink="http://www.w3.org/1999/xlink" width="396.000mm" height="248.444mm" viewBox="17.000000 10.804993 396.000000 248.444000">
    <path transform="translate(17,33.499992)" style="stroke:none;fill:#ff0000;fill-rule:evenodd" d="M0,103L0,137.25L3,137.25L3,168.75L0,168.75L0,200.25L0,203L32.75,203L32.75,200L64.25,200L64.25,203L95.75,203L95.75,200L127.25,200L127.25,203L160,203L160,168.75L157,168.75L157,137.25L160,137.25L160,105.75L160,103L127.25,103L127.25,106L95.75,106L95.75,103L64.25,103L64.25,106L32.75,106L32.75,103L0,103z"/>
    <path transform="translate(17,33.499992)" style="stroke:none;fill:#ff0000;fill-rule:evenodd" d="M166,103L166,137.25L163,137.25L163,168.75L166,168.75L166,200.25L166,203L182.25,203L182.25,200L213.75,200L213.75,203L230,203L230,168.75L233,168.75L233,137.25L230,137.25L230,105.75L230,103L213.75,103L213.75,106L182.25,106L182.25,103L166,103z"/>
    <path transform="translate(17,33.499992)" style="stroke:none;fill:#ff0000;fill-rule:evenodd" d="M239,136L239,152.25L236,152.25L236,183.75L239,183.75L239,200L268.75,200L268.75,203L300.25,203L300.25,200L331.75,200L331.75,203L363.25,203L363.25,200L393,200L393,183.75L396,183.75L396,152.25L393,152.25L393,136L363.25,136L363.25,133L331.75,133L331.75,136L300.25,136L300.25,133L268.75,133L268.75,136L239,136z"/>
    <path transform="translate(17,33.499992)" style="stroke:none;fill:#ff0000;fill-rule:evenodd" d="M0,0L0,34.25L3,34.25L3,65.75L0,65.75L0,97.25L0,100L32.75,100L32.75,97L64.25,97L64.25,100L95.75,100L95.75,97L127.25,97L127.25,100L160,100L160,65.75L157,65.75L157,34.25L160,34.25L160,2.75L160,0L127.25,0L127.25,3L95.75,3L95.75,0L64.25,0L64.25,3L32.75,3L32.75,0L0,0z"/>
    <path transform="translate(17,33.499992)" style="stroke:none;fill:#ff0000;fill-rule:evenodd" d="M166,0L166,34.25L163,34.25L163,65.75L166,65.75L166,97.25L166,100L182.25,100L182.25,97L213.75,97L213.75,100L230,100L230,65.75L233,65.75L233,34.25L230,34.25L230,2.75L230,0L213.75,0L213.75,3L182.25,3L182.25,0L166,0z"/>
    <path transform="translate(17,33.499992)" style="stroke:none;fill:#ff0000;fill-rule:evenodd" d="M239,63L239,79.25L236,79.25L236,110.75L239,110.75L239,127L268.75,127L268.75,130L300.25,130L300.25,127L331.75,127L331.75,130L363.25,130L363.25,127L393,127L393,110.75L396,110.75L396,79.25L393,79.25L393,63L363.25,63L363.25,60L331.75,60L331.75,63L300.25,63L300.25,60L268.75,60L268.75,63L239,63z"/>
    <path transform="translate(17,-31.500008)" style="stroke:#808080;stroke-width:0.05mm;fill:none" d="M93.691002,52.021L93.769997,52.021C94.049332,51.624332,94.47567,51.103664,95.049004,50.459L98.505997,46.797001L100.43,46.797001L96.094002,51.356998L100.732002,57.5L98.769997,57.5L94.989998,52.441002L93.769997,53.495998L93.769997,57.5L92.167999,57.5L92.167999,42.305L93.769997,42.305L93.769997,50.361C93.769768,50.462673,93.768105,50.564373,93.764999,50.666C93.754997,51.007999,93.730331,51.459667,93.691002,52.021z"/>
    <path transform="translate(17,-31.500008)" style="stroke:#808080;stroke-width:0.05mm;fill:none" d="M60.889,56.123001L60.771,56.123001L60.43,57.5L59.268002,57.5L59.268002,42.305L60.889,42.305L60.889,45.995998C60.889,46.795998,60.864666,47.516998,60.816002,48.159C60.814381,48.180191,60.812691,48.201813,60.811001,48.223L60.889,48.223C61.511089,47.330578,62.495617,46.758526,63.578999,46.66C63.801006,46.633503,64.024422,46.62048,64.248001,46.620998C64.719147,46.616405,65.188538,46.679039,65.641998,46.806999C66.384583,47.01889,67.042511,47.457275,67.524002,48.061001C67.904106,48.540375,68.188599,49.088303,68.362,49.674999C68.499336,50.117668,68.593666,50.604332,68.644997,51.134998C68.676491,51.468719,68.691849,51.803795,68.691002,52.139C68.691002,53.896336,68.299004,55.261669,67.514999,56.235001C66.845955,57.073139,65.856743,57.593124,64.787003,57.668999C64.607864,57.686485,64.427986,57.69516,64.248001,57.695C63.831306,57.697575,63.415974,57.647171,63.012001,57.544998C62.781494,57.485203,62.556377,57.406261,62.339001,57.308998C61.763,57.052334,61.279667,56.657001,60.889,56.123001z"/>
    <path transform="translate(17,-31.500008)" style="stroke:#808080;stroke-width:0.05mm;fill:none" d="M79.306999,57.5L78.105003,57.5L77.782997,55.976002L77.705002,55.976002C77.536186,56.189838,77.354515,56.393219,77.161003,56.584999C76.966339,56.777,76.771667,56.939667,76.577003,57.073002C76.429008,57.175625,76.272034,57.264652,76.108002,57.339001C75.578003,57.576332,74.915672,57.695,74.121002,57.695C73.781242,57.697311,73.442139,57.664806,73.109001,57.598C72.515671,57.474667,72.021332,57.233665,71.625999,56.875C71.218803,56.501358,70.937836,56.010368,70.821999,55.470001C70.753525,55.16515,70.720314,54.853439,70.723,54.541C70.723,52.449001,72.341667,51.320667,75.579002,51.155998C75.688614,51.150192,75.798286,51.145523,75.907997,51.141998L77.724998,51.084L77.724998,50.419998C77.725952,50.194851,77.710587,49.969925,77.679001,49.747002C77.645668,49.517002,77.59333,49.310001,77.522003,49.125999C77.444763,48.917793,77.329849,48.72559,77.182999,48.558998C76.9981,48.359177,76.766518,48.208344,76.509003,48.119999C76.329002,48.054665,76.127335,48.008999,75.903999,47.983002C75.752914,47.96637,75.600998,47.958359,75.448997,47.959C74.73233,47.959,73.939667,48.135666,73.070999,48.488998C72.85157,48.578548,72.635101,48.675278,72.421997,48.778999L71.924004,47.539001C72.382683,47.291603,72.865974,47.092854,73.365997,46.945999C73.462524,46.917274,73.559517,46.890282,73.656998,46.865002C74.274078,46.703709,74.909195,46.621716,75.546997,46.620998C75.896042,46.619045,76.244728,46.643784,76.589996,46.695C77.351997,46.813,77.950005,47.071667,78.384003,47.471001C78.866005,47.915001,79.159332,48.569332,79.264,49.433998C79.293488,49.686584,79.307846,49.940701,79.306999,50.195L79.306999,57.5z"/>
    <path transform="translate(17,-31.500008)" style="stroke:#808080;stroke-width:0.05mm;fill:none" d="M89.785004,47.158001L89.287003,48.535C89.031502,48.433498,88.770409,48.346695,88.504997,48.275002C88.375763,48.239975,88.245728,48.207962,88.114998,48.179001C87.752998,48.097668,87.426666,48.051334,87.136002,48.040001C87.08802,48.038036,87.040024,48.037037,86.991997,48.036999C84.817337,48.036999,83.730003,49.423664,83.730003,52.196999C83.728134,52.579391,83.754196,52.961407,83.807999,53.34C83.921997,54.112667,84.161331,54.740665,84.526001,55.223999C84.93045,55.761425,85.529129,56.11927,86.194,56.221001C86.422173,56.260696,86.653412,56.280106,86.885002,56.278999C87.518639,56.27618,88.148758,56.184624,88.757004,56.007C89.05304,55.921772,89.344139,55.820286,89.628998,55.702999L89.628998,57.139C89.271927,57.320423,88.892731,57.454552,88.500999,57.537998C88.153671,57.614666,87.777672,57.663334,87.373001,57.683998C87.223442,57.691444,87.073746,57.695114,86.924004,57.695C86.427597,57.699265,85.932549,57.642506,85.449997,57.526001C84.629036,57.33371,83.887131,56.893456,83.324997,56.264999C82.590996,55.440998,82.173996,54.321999,82.073997,52.908001C82.058205,52.678005,82.050537,52.447533,82.051003,52.216999C82.047302,51.671593,82.093498,51.126995,82.189003,50.59C82.301003,49.985332,82.481003,49.444664,82.728996,48.967999C82.896675,48.643276,83.103561,48.340347,83.345001,48.066002C83.948235,47.38905,84.754433,46.925606,85.642998,46.744999C86.098984,46.646255,86.564445,46.597969,87.030998,46.601002C87.549759,46.601471,88.067001,46.65712,88.573997,46.766998C89.082664,46.876999,89.483002,47.005665,89.775002,47.153C89.778336,47.154659,89.78167,47.156326,89.785004,47.158001z"/>
    <path transform="translate(17,-31.500008)" style="stroke:#808080;stroke-width:0.05mm;fill:none" d="M64.014,47.978001C63.717766,47.975891,63.422035,48.002686,63.131001,48.057999C62.471664,48.188667,61.96833,48.479668,61.620998,48.931C61.447872,49.163441,61.312229,49.42157,61.219002,49.695999C61.038334,50.202,60.931667,50.84,60.898998,51.610001C60.89193,51.786255,60.888599,51.962601,60.889,52.139C60.887566,52.508671,60.905258,52.878151,60.942001,53.245998C61.019333,53.991333,61.182331,54.590664,61.431,55.043999C61.492439,55.156677,61.562656,55.264343,61.640999,55.366001C61.944786,55.752396,62.361988,56.033913,62.834,56.171001C63.188,56.282333,63.594334,56.338001,64.053001,56.338001C65.048996,56.338001,65.791,55.975002,66.278999,55.249001C66.481049,54.941612,66.636406,54.605961,66.739998,54.252998C66.835999,53.937664,66.90667,53.589001,66.952003,53.207001C66.993271,52.845818,67.013306,52.482525,67.012001,52.118999C67.013443,51.754528,66.99408,51.390266,66.954002,51.028C66.862,50.231998,66.662003,49.593666,66.353996,49.112999C66.329887,49.076054,66.304886,49.039715,66.278999,49.004002C65.791,48.32,65.035995,47.978001,64.014,47.978001z"/>
    <path transform="translate(17,-31.500008)" style="stroke:#808080;stroke-width:0.05mm;fill:none" d="M77.685997,53.202999L77.685997,52.236L76.064003,52.305C74.987999,52.342999,74.162666,52.488667,73.587997,52.742001C73.480286,52.788902,73.376022,52.843372,73.276001,52.904999C72.824669,53.176147,72.521378,53.638073,72.452003,54.16C72.431549,54.292343,72.421524,54.426086,72.421997,54.560001C72.420395,54.738937,72.439522,54.917461,72.478996,55.091999C72.542999,55.363998,72.660995,55.593666,72.833,55.780998C72.871025,55.822319,72.911423,55.861385,72.954002,55.897999C73.146706,56.060905,73.372108,56.180595,73.614998,56.249001C73.857666,56.320999,74.133667,56.356998,74.443001,56.356998C75.452332,56.356998,76.245003,56.080334,76.820999,55.527C77.394333,54.977001,77.682663,54.207668,77.685997,53.219002C77.686005,53.213703,77.686005,53.208294,77.685997,53.202999z"/>
    <path transform="translate(17,98.499992)" style="stroke:#808080;stroke-width:0.05mm;fill:none" d="M94.574997,160.552994L92.954002,160.552994L92.954002,153.630005C92.954002,153.074005,92.873337,152.607666,92.711998,152.231003C92.626587,152.027435,92.506844,151.840042,92.358002,151.677002C92.151558,151.45813,91.894287,151.293594,91.609001,151.197998C91.412338,151.128662,91.193336,151.080994,90.952003,151.054993C90.799522,151.039154,90.646301,151.031464,90.492996,151.031998C89.755669,151.031998,89.148003,151.16333,88.669998,151.425995C88.428116,151.55751,88.211975,151.731644,88.031998,151.940002C87.832443,152.17952,87.676727,152.452377,87.571999,152.746002C87.386665,153.237991,87.28167,153.851334,87.257004,154.585999C87.253014,154.703262,87.251015,154.820648,87.250999,154.938004L87.250999,160.552994L85.629997,160.552994L85.629997,149.850006L86.947998,149.850006L87.211998,151.315002L87.290001,151.315002C87.605736,150.816528,88.04998,150.412354,88.575996,150.145004C88.612709,150.126099,88.649712,150.107758,88.686996,150.089996C89.177361,149.855484,89.707016,149.714096,90.249001,149.673004C90.39502,149.66095,90.541489,149.654938,90.688004,149.654999C91.543335,149.654999,92.258003,149.791672,92.832001,150.065002C93.113976,150.197205,93.372932,150.373779,93.598999,150.587997C94.249664,151.209335,94.574997,152.203674,94.574997,153.570999L94.574997,160.552994z"/>
    <path transform="translate(17,98.499992)" style="stroke:#808080;stroke-width:0.05mm;fill:none" d="M63.432999,149.850006L63.432999,151.110001L60.708,151.110001L60.708,160.552994L59.087002,160.552994L59.087002,151.110001L57.173,151.110001L57.173,150.378006L59.087002,149.792007L59.087002,149.195999C59.087002,146.925323,59.943333,145.634995,61.655998,145.324997C61.945869,145.274155,62.239708,145.249405,62.534,145.251007C62.974667,145.251007,63.473999,145.319672,64.031998,145.457001C64.197739,145.498306,64.362473,145.543655,64.526001,145.593002L64.106003,146.891006C63.904411,146.825455,63.70023,146.768066,63.493999,146.718994C63.125336,146.632339,62.79567,146.589005,62.505001,146.589005C62.327591,146.587204,62.150623,146.60701,61.978001,146.647995C61.642914,146.723801,61.347256,146.919846,61.146999,147.199005C61.040215,147.352432,60.956963,147.520966,60.900002,147.699005C60.790001,148.024338,60.727333,148.429001,60.712002,148.912994C60.709373,148.994308,60.708038,149.075653,60.708,149.156998L60.708,149.850006L63.432999,149.850006z"/>
    <path transform="translate(17,98.499992)" style="stroke:#808080;stroke-width:0.05mm;fill:none" d="M102.827003,159.216003L102.827003,160.455994C102.765663,160.484985,102.702538,160.510056,102.638,160.531006C102.503326,160.575668,102.339996,160.615005,102.148003,160.649002C102.11573,160.654922,102.083359,160.660599,102.051003,160.666C101.731667,160.717331,101.442329,160.744659,101.182999,160.748001C101.164688,160.748444,101.146309,160.748779,101.127998,160.748993C100.705963,160.755524,100.285301,160.698898,99.879997,160.580994C98.966003,160.298996,98.389336,159.661331,98.150002,158.667999C98.060661,158.27742,98.0177,157.877655,98.022003,157.477005L98.022003,151.110001L96.488998,151.110001L96.488998,150.328995L98.022003,149.654999L98.706001,147.369995L99.643997,147.369995L99.643997,149.850006L102.749001,149.850006L102.749001,151.110001L99.643997,151.110001L99.643997,157.408997C99.642776,157.601013,99.658508,157.792755,99.691002,157.981995C99.728333,158.192001,99.788002,158.380005,99.870003,158.546005C99.931877,158.671539,100.010231,158.788239,100.102997,158.893005C100.342346,159.162796,100.670593,159.337738,101.028,159.386002C101.138519,159.402939,101.250191,159.411301,101.362,159.410995C101.623016,159.411469,101.88372,159.392761,102.141998,159.354996C102.158699,159.352417,102.175323,159.349747,102.192001,159.347C102.270203,159.334717,102.348167,159.321381,102.426003,159.307007C102.575333,159.279678,102.701668,159.251343,102.805,159.222C102.812363,159.220032,102.819672,159.218048,102.827003,159.216003z"/>
    <path transform="translate(17,98.499992)" style="stroke:#808080;stroke-width:0.05mm;fill:none" d="M71.547997,149.772003L71.322998,151.276001C71.152878,151.238083,70.981445,151.20639,70.808998,151.181C70.638336,151.156326,70.476997,151.140671,70.324997,151.134003C70.267036,151.131348,70.209023,151.130005,70.151001,151.130005C69.364388,151.124954,68.611694,151.449966,68.075996,152.026001C68.025871,152.077301,67.97718,152.12999,67.93,152.184006C67.422653,152.766815,67.110397,153.49379,67.037003,154.263C67.016815,154.444977,67.006805,154.62793,67.007004,154.811005L67.007004,160.552994L65.386002,160.552994L65.386002,149.850006L66.723999,149.850006L66.908997,151.832993L66.987,151.832993C67.161995,151.522079,67.366974,151.229019,67.598999,150.957993C67.839836,150.676941,68.11692,150.429108,68.422997,150.220993C68.983002,149.843658,69.598335,149.654999,70.268997,149.654999C70.491302,149.654373,70.713524,149.663727,70.934998,149.682999C71.140862,149.700989,71.34552,149.730698,71.547997,149.772003z"/>
    <path transform="translate(17,98.499992)" style="stroke:#808080;stroke-width:0.05mm;fill:none" d="M82.639,156.820999C82.741707,156.284164,82.791618,155.738556,82.788002,155.192001C82.788155,155.106308,82.787155,155.020676,82.785004,154.934998C82.742332,153.356339,82.30233,152.09433,81.464996,151.149002C80.940567,150.549133,80.257866,150.109024,79.495003,149.878998C78.976089,149.725311,78.437172,149.649811,77.896004,149.654999C77.516853,149.653214,77.138313,149.685669,76.764999,149.751999C75.800026,149.907883,74.917267,150.388779,74.263,151.115005C73.683662,151.761673,73.296661,152.578003,73.101997,153.563995C72.999962,154.100586,72.950394,154.645828,72.954002,155.192001C72.952301,155.63205,72.986412,156.071487,73.056,156.505997C73.144989,157.072296,73.31472,157.622894,73.559998,158.141006C73.59745,158.218948,73.636795,158.295975,73.678001,158.371994C74.047646,159.073822,74.600578,159.662354,75.278,160.074997C75.602585,160.271606,75.950668,160.426498,76.314003,160.535995C76.805115,160.681015,77.314941,160.752792,77.827003,160.748993C78.19532,160.750549,78.563072,160.719757,78.926003,160.656998C79.907127,160.503555,80.805489,160.016953,81.470001,159.279007C82.053337,158.628326,82.443001,157.80899,82.639,156.820999z"/>
    <path transform="translate(17,98.499992)" style="stroke:#808080;stroke-width:0.05mm;fill:none" d="M74.634003,155.192001C74.634003,156.559326,74.907333,157.600998,75.454002,158.317001C75.875435,158.870087,76.496887,159.235931,77.184998,159.335999C77.410027,159.373611,77.637848,159.392014,77.865997,159.391006C78.201332,159.394455,78.535622,159.353088,78.860001,159.268005C79.42672,159.12056,79.927711,158.787506,80.282997,158.322006C80.833,157.609344,81.108002,156.56601,81.108002,155.192001C81.108002,154.319336,80.995003,153.580994,80.768997,152.977005C80.652809,152.659058,80.48893,152.360641,80.282997,152.091995C79.873398,151.566467,79.281929,151.213303,78.625,151.102005C78.3685,151.053894,78.107979,151.030457,77.847,151.031998C77.523193,151.029175,77.200325,151.067154,76.886002,151.145004C76.313095,151.282074,75.804283,151.610931,75.444,152.076996C75.055336,152.578323,74.806335,153.257004,74.696999,154.113007C74.653313,154.470978,74.632271,154.831375,74.634003,155.192001z"/>
    <path transform="translate(17,98.499992)" style="stroke:#808080;stroke-width:0.05mm;fill:none" d="M202.979996,150.794998L202.979996,151.677002L201.072998,151.677002L201.072998,158.287003L199.938004,158.287003L199.938004,151.677002L198.598007,151.677002L198.598007,151.164001L199.938004,150.753998L199.938004,150.337006C199.933868,149.986725,199.969757,149.637115,200.044998,149.294998C200.313004,148.149002,201.081665,147.576004,202.350998,147.576004C202.524033,147.576736,202.696793,147.589767,202.867996,147.615005C203.035995,147.639008,203.213333,147.673996,203.399994,147.720001C203.516083,147.74884,203.63147,147.780518,203.746002,147.815002L203.451996,148.723999C203.310684,148.677902,203.167572,148.637527,203.022995,148.602997C202.764999,148.542328,202.534332,148.511993,202.330994,148.511993C202.206741,148.510971,202.08284,148.52507,201.962006,148.554001C201.727448,148.606842,201.520386,148.743805,201.380005,148.938995C201.194,149.197662,201.092331,149.597672,201.074997,150.139008C201.073425,150.195984,201.072754,150.252991,201.072998,150.309998L201.072998,150.794998L202.979996,150.794998z"/>
    <path transform="translate(17,98.499992)" style="stroke:#808080;stroke-width:0.05mm;fill:none" d="M197.667999,154.029007L197.667999,154.746002L192.507004,154.746002C192.512177,155.002136,192.538925,155.25737,192.587006,155.509003C192.688339,156.022339,192.884003,156.435669,193.173996,156.748993C193.595337,157.205002,194.188995,157.432999,194.955002,157.432999C195.72464,157.43013,196.486526,157.279037,197.199005,156.988007C197.248566,156.968246,197.297928,156.947906,197.347,156.927002L197.347,157.938995C196.946335,158.112335,196.567001,158.236343,196.209,158.311005C196.052643,158.343246,195.894791,158.367615,195.735992,158.384003C195.487991,158.41066,195.214005,158.423996,194.914001,158.423996C194.541992,158.427399,194.171051,158.383728,193.809998,158.294006C193.230057,158.151245,192.703232,157.845139,192.292007,157.412003C191.905716,156.998581,191.630783,156.49379,191.492996,155.945007C191.385666,155.541672,191.332001,155.09433,191.332001,154.602997C191.329239,154.206314,191.366089,153.810349,191.442001,153.421005C191.577332,152.751007,191.837997,152.185669,192.223999,151.725006C192.748398,151.088013,193.518707,150.703766,194.343002,150.667999C194.435196,150.661804,194.527588,150.658798,194.619995,150.658997C194.948853,150.655823,195.276489,150.6996,195.593002,150.789001C196.079147,150.928207,196.514862,151.204575,196.848007,151.585007C197.208984,151.998062,197.456711,152.49765,197.567001,153.035004C197.636505,153.36171,197.67038,153.694992,197.667999,154.029007z"/>
    <path transform="translate(17,98.499992)" style="stroke:#808080;stroke-width:0.05mm;fill:none" d="M207.792007,157.350998L207.792007,158.218994C207.681335,158.272324,207.52301,158.317657,207.317001,158.354996C207.294357,158.358856,207.271683,158.362518,207.248993,158.365997C207.009659,158.404663,206.794327,158.423996,206.602997,158.423996C205.153671,158.423996,204.429001,157.66066,204.429001,156.134003L204.429001,151.677002L203.356003,151.677002L203.356003,151.130005L204.429001,150.658997L204.908005,149.059006L205.563995,149.059006L205.563995,150.794998L207.738007,150.794998L207.738007,151.677002L205.563995,151.677002L205.563995,156.085999C205.563126,156.220718,205.574173,156.35524,205.597,156.488007C205.643677,156.748672,205.73967,156.960999,205.884995,157.125C206.052673,157.31395,206.282623,157.436371,206.533005,157.470001C206.610413,157.48204,206.688644,157.488052,206.766998,157.488007C206.949707,157.488403,207.132202,157.475372,207.313004,157.449005C207.324661,157.447052,207.336349,157.445053,207.348007,157.442993C207.526672,157.414993,207.669662,157.385666,207.776993,157.354996C207.781982,157.353699,207.787018,157.352356,207.792007,157.350998z"/>
    <path transform="translate(17,98.499992)" style="stroke:#808080;stroke-width:0.05mm;fill:none" d="M189.341995,147.651001L189.341995,158.287003L188.207993,158.287003L188.207993,147.651001L189.341995,147.651001z"/>
    <path transform="translate(17,98.499992)" style="stroke:#808080;stroke-width:0.05mm;fill:none" d="M192.535004,153.824005L196.451996,153.824005C196.45311,153.615753,196.437393,153.40773,196.404999,153.201996C196.369003,152.979324,196.311661,152.779327,196.233002,152.602005C196.166733,152.449753,196.079193,152.307663,195.973007,152.179993C195.734467,151.8965,195.402542,151.707489,195.037003,151.647003C194.894821,151.621002,194.750534,151.608276,194.606003,151.608994C194.387482,151.606949,194.16983,151.636948,193.960007,151.697998C193.654755,151.788132,193.380341,151.960815,193.167007,152.197006C192.970428,152.41597,192.818878,152.671494,192.720993,152.949005C192.626999,153.207672,192.565002,153.499344,192.535004,153.824005z"/>
    <path transform="translate(17,83.499992)" style="stroke:#808080;stroke-width:0.05mm;fill:none" d="M321.031006,169.968994L320.949005,169.968994C320.982483,170.232361,321.006134,170.496872,321.019989,170.761993C321.027435,170.912201,321.031097,171.062607,321.031006,171.212997L321.031006,174.296005L319.895996,174.296005L319.895996,163.440002L320.819,163.440002L320.97699,164.466003L321.031006,164.466003C321.159515,164.283005,321.307739,164.11467,321.472992,163.964005C321.645203,163.807266,321.83963,163.676849,322.049988,163.576996C322.307892,163.457397,322.582275,163.377167,322.864014,163.339005C323.03598,163.315109,323.209381,163.303406,323.382996,163.304001C323.714905,163.300583,324.045593,163.344696,324.36499,163.434998C324.886963,163.584106,325.348328,163.894608,325.683014,164.322006C325.946381,164.6604,326.143494,165.045471,326.264008,165.457001C326.364685,165.783676,326.432007,166.143005,326.466003,166.535004C326.484406,166.749496,326.493408,166.964706,326.493011,167.179993C326.495239,167.554794,326.46579,167.929138,326.404999,168.298996C326.284332,169.006332,326.039001,169.589005,325.669006,170.046997C325.200897,170.633682,324.508667,170.997742,323.76001,171.050995C323.634705,171.063156,323.508881,171.069168,323.382996,171.069C323.09137,171.070786,322.80072,171.035492,322.518005,170.964005C322.356354,170.922256,322.198456,170.867065,322.04599,170.798996C321.640198,170.617004,321.289948,170.330597,321.031006,169.968994z"/>
    <path transform="translate(17,83.499992)" style="stroke:#808080;stroke-width:0.05mm;fill:none" d="M309.942993,169.996002L309.942993,170.863998C309.832336,170.917999,309.674011,170.963333,309.467987,171C309.445343,171.003845,309.422668,171.007507,309.399994,171.011002C309.160645,171.049667,308.945313,171.069,308.753998,171.069C307.304657,171.069,306.579987,170.305664,306.579987,168.779007L306.579987,164.322006L305.506989,164.322006L305.506989,163.774994L306.579987,163.304001L307.05899,161.703995L307.714996,161.703995L307.714996,163.440002L309.889008,163.440002L309.889008,164.322006L307.714996,164.322006L307.714996,168.731003C307.714111,168.865707,307.725159,169.000229,307.747986,169.132996C307.794647,169.393661,307.890656,169.606339,308.036011,169.770996C308.203827,169.959549,308.433777,170.081619,308.68399,170.115005C308.761414,170.127045,308.839661,170.133057,308.917999,170.132996C309.100708,170.133392,309.283173,170.120361,309.463989,170.093994C309.475677,170.092056,309.487366,170.090057,309.498993,170.087997C309.677002,170.059998,309.820007,170.03067,309.928009,170C309.933014,169.998688,309.937988,169.99736,309.942993,169.996002z"/>
    <path transform="translate(17,83.499992)" style="stroke:#808080;stroke-width:0.05mm;fill:none" d="M317.803009,168.320007C317.874786,167.944321,317.909607,167.562485,317.907013,167.179993C317.907166,167.11998,317.906494,167.059982,317.904999,167C317.875,165.894669,317.566986,165.011337,316.980988,164.350006C316.614014,163.929749,316.136108,163.621307,315.60199,163.460007C315.238464,163.352631,314.860992,163.300049,314.481995,163.304001C314.216827,163.302811,313.952087,163.325577,313.69101,163.371994C313.01535,163.480988,312.397186,163.817581,311.938995,164.326004C311.792267,164.490005,311.663239,164.668991,311.553986,164.860001C311.200012,165.476669,311.02301,166.25,311.02301,167.179993C311.022064,167.487762,311.046143,167.79512,311.095001,168.098999C311.156982,168.495529,311.275513,168.881134,311.446991,169.244003C311.473328,169.29866,311.501007,169.352692,311.529999,169.406006C311.788757,169.897247,312.175812,170.309174,312.649994,170.598007C312.877472,170.735443,313.121399,170.843628,313.376007,170.919998C313.719757,171.021484,314.076599,171.071686,314.434998,171.069C314.692688,171.07019,314.950043,171.048782,315.20401,171.005005C315.890442,170.897629,316.519012,170.55722,316.984009,170.041C317.126862,169.881516,317.253174,169.707962,317.360992,169.522995C317.566345,169.172333,317.713684,168.771332,317.803009,168.320007z"/>
    <path transform="translate(17,83.499992)" style="stroke:#808080;stroke-width:0.05mm;fill:none" d="M312.199005,167.179993C312.197693,167.454636,312.216064,167.729004,312.253998,168.001007C312.294006,168.278336,312.356323,168.529678,312.44101,168.755005C312.521088,168.974167,312.632965,169.180374,312.77301,169.367004C313.156342,169.868332,313.71933,170.119003,314.462006,170.119003C314.696472,170.121384,314.930206,170.092453,315.157013,170.033005C315.554016,169.930023,315.905029,169.696945,316.153992,169.371002C316.321686,169.148178,316.44989,168.898209,316.53299,168.632004C316.607666,168.403992,316.66098,168.151321,316.692993,167.873993C316.719116,167.643585,316.731812,167.41185,316.730988,167.179993C316.730988,166.568665,316.651978,166.051666,316.493988,165.628998C316.412781,165.406281,316.298126,165.19722,316.153992,165.009003C315.866974,164.641449,315.45282,164.394592,314.993011,164.317001C314.813324,164.28331,314.630829,164.266907,314.447998,164.268005C314.221619,164.265732,313.99585,164.291946,313.776001,164.345993C313.375,164.442154,313.018951,164.672562,312.766998,164.998993C312.494324,165.350327,312.320007,165.825333,312.243988,166.423996C312.213104,166.674789,312.198059,166.927307,312.199005,167.179993z"/>
    <path transform="translate(17,83.499992)" style="stroke:#808080;stroke-width:0.05mm;fill:none" d="M321.031006,166.927002L321.031006,167.179993C321.029938,167.438797,321.042297,167.697464,321.067993,167.955002C321.136658,168.610992,321.299988,169.105667,321.558014,169.438995C321.770538,169.709671,322.062561,169.906921,322.393005,170.003006C322.57901,170.061005,322.785339,170.097336,323.011993,170.112C323.089905,170.116837,323.167938,170.119171,323.246002,170.119003C323.893341,170.119003,324.40033,169.856995,324.766998,169.332993C324.934937,169.087784,325.06192,168.816925,325.143005,168.531006C325.215668,168.28566,325.265686,168.015991,325.292999,167.722C325.309509,167.53714,325.317535,167.351608,325.316986,167.166C325.318604,166.894409,325.300903,166.623062,325.264008,166.354004C325.184662,165.805344,325.018982,165.359344,324.766998,165.016006C324.465759,164.593018,323.99353,164.324158,323.476013,164.281006C323.390625,164.272156,323.30484,164.267822,323.218994,164.268005C322.453003,164.268005,321.899353,164.479675,321.558014,164.903C321.427124,165.069855,321.324432,165.256989,321.253998,165.457001C321.125336,165.805664,321.052338,166.237671,321.035004,166.753006C321.032959,166.810989,321.031616,166.869003,321.031006,166.927002z"/>
    <path transform="translate(17,-16.500008)" style="stroke:#808080;stroke-width:0.05mm;fill:none" d="M339.029999,100.25L337.894989,100.25L337.894989,95.375999C337.896088,95.211411,337.885071,95.046967,337.862,94.884003C337.83667,94.716003,337.797668,94.564667,337.744995,94.43C337.690552,94.285553,337.612122,94.151329,337.513,94.032997C337.365479,93.863495,337.173126,93.739059,336.958008,93.674004C336.826019,93.631332,336.679688,93.604004,336.519012,93.592003C336.453796,93.587234,336.388428,93.5849,336.322998,93.584999C336.123627,93.583336,335.924591,93.602104,335.729004,93.640999C335.493683,93.690331,335.287018,93.771332,335.109009,93.884003C334.976593,93.968056,334.858154,94.072319,334.757996,94.193001C334.618866,94.364754,334.51123,94.559753,334.440002,94.768997C334.315338,95.117668,334.252655,95.546333,334.252014,96.055C334.252014,96.058418,334.252014,96.062584,334.252014,96.066002L334.252014,100.25L333.117004,100.25L333.117004,95.375999C333.117798,95.211388,333.106415,95.046944,333.083008,94.884003C333.058319,94.716003,333.019653,94.564667,332.96701,94.43C332.912262,94.285484,332.833496,94.151253,332.734009,94.032997C332.47934,93.734329,332.080658,93.584999,331.537994,93.584999C331.041992,93.584999,330.638672,93.688667,330.328003,93.896004C330.193634,93.985504,330.074738,94.096291,329.976013,94.223999C329.645355,94.650002,329.480011,95.348335,329.480011,96.319L329.480011,100.25L328.346008,100.25L328.346008,92.758003L329.269012,92.758003L329.453003,93.782997L329.507996,93.782997C329.722809,93.418091,330.037048,93.121872,330.414001,92.929001C330.744202,92.756874,331.106476,92.65506,331.477997,92.629997C331.559509,92.623924,331.641235,92.620918,331.722992,92.621002C332.004059,92.618286,332.284515,92.647469,332.55899,92.708C332.901672,92.787338,333.192657,92.921005,333.432007,93.109001C333.691467,93.315453,333.893585,93.58506,334.019012,93.891998L334.074005,93.891998C334.286377,93.521584,334.59494,93.215454,334.96701,93.005997C334.992767,92.991257,335.018768,92.976929,335.045013,92.962997C335.37204,92.789101,335.729584,92.680099,336.097992,92.641998C336.229492,92.627686,336.361694,92.620674,336.493988,92.621002C336.734009,92.619507,336.973694,92.639923,337.209991,92.681999C337.47467,92.730667,337.710663,92.809334,337.917999,92.917999C338.096039,93.01017,338.258118,93.130371,338.39801,93.274002C338.58371,93.471161,338.726379,93.704765,338.816986,93.959999C338.958984,94.339333,339.029999,94.806664,339.029999,95.362L339.029999,100.25z"/>
    <path transform="translate(17,-16.500008)" style="stroke:#808080;stroke-width:0.05mm;fill:none" d="M294.104004,99.286003L294.022003,99.286003L293.78299,100.25L292.970001,100.25L292.970001,89.612999L294.104004,89.612999L294.104004,92.196999C294.104492,92.463425,294.100494,92.729706,294.09201,92.996002C294.082672,93.265335,294.068665,93.518669,294.049988,93.755997L294.104004,93.755997C294.539703,93.131065,295.229279,92.730637,295.988007,92.662003C296.143311,92.64357,296.299622,92.634552,296.455994,92.635002C296.785858,92.631699,297.114532,92.675468,297.432007,92.764999C297.951691,92.913437,298.412079,93.220375,298.748993,93.642998C299.015137,93.978287,299.214386,94.361565,299.335999,94.772003C299.489349,95.267998,299.56601,95.843002,299.56601,96.497002C299.568237,96.871819,299.538788,97.24614,299.477997,97.615997C299.35733,98.323334,299.112335,98.906334,298.743011,99.364998C298.274658,99.951935,297.582031,100.316017,296.833008,100.369003C296.707703,100.381157,296.581879,100.387169,296.455994,100.387001C296.164337,100.388458,295.873688,100.352837,295.591003,100.280998C295.429718,100.239517,295.272156,100.184662,295.119995,100.116997C294.713684,99.934891,294.363068,99.648109,294.104004,99.286003z"/>
    <path transform="translate(17,-16.500008)" style="stroke:#808080;stroke-width:0.05mm;fill:none" d="M313.450012,99.313004L313.450012,100.181C313.338654,100.235001,313.179993,100.280327,312.973999,100.317001C312.951721,100.320847,312.929382,100.324516,312.907013,100.328003C312.667664,100.367332,312.452332,100.387001,312.260986,100.387001C310.811676,100.387001,310.087006,99.623665,310.087006,98.097L310.087006,93.639L309.014008,93.639L309.014008,93.093002L310.087006,92.621002L310.565002,91.021004L311.221985,91.021004L311.221985,92.758003L313.394989,92.758003L313.394989,93.639L311.221985,93.639L311.221985,98.049004C311.221191,98.18338,311.232239,98.317566,311.255005,98.449997C311.301666,98.71067,311.397675,98.923332,311.542999,99.087997C311.710693,99.276939,311.940643,99.399368,312.19101,99.432999C312.268463,99.444695,312.34668,99.450378,312.424988,99.449997C312.607697,99.450401,312.790192,99.43737,312.971008,99.411003C312.982666,99.409393,312.994354,99.407722,313.006012,99.405998C313.184021,99.377335,313.326996,99.348,313.434998,99.318001C313.440002,99.316353,313.445007,99.31469,313.450012,99.313004z"/>
    <path transform="translate(17,-16.500008)" style="stroke:#808080;stroke-width:0.05mm;fill:none" d="M318.393005,99.313004L318.393005,100.181C318.281677,100.235001,318.123016,100.280327,317.916992,100.317001C317.894348,100.320847,317.871674,100.324516,317.848999,100.328003C317.60965,100.367332,317.394318,100.387001,317.203003,100.387001C315.753662,100.387001,315.028992,99.623665,315.028992,98.097L315.028992,93.639L313.955994,93.639L313.955994,93.093002L315.028992,92.621002L315.507996,91.021004L316.164001,91.021004L316.164001,92.758003L318.338013,92.758003L318.338013,93.639L316.164001,93.639L316.164001,98.049004C316.163208,98.18338,316.174255,98.317558,316.196991,98.449997C316.243652,98.71067,316.339661,98.923332,316.484985,99.087997C316.652679,99.276939,316.882629,99.399368,317.132996,99.432999C317.210449,99.444695,317.288696,99.450378,317.367004,99.449997C317.549713,99.450401,317.732208,99.43737,317.912994,99.411003C317.924652,99.409393,317.93634,99.407722,317.947998,99.405998C318.126678,99.377335,318.269684,99.348,318.377014,99.318001C318.382385,99.31636,318.387695,99.314697,318.393005,99.313004z"/>
    <path transform="translate(17,-16.500008)" style="stroke:#808080;stroke-width:0.05mm;fill:none" d="M307.911011,97.637001C307.983093,97.26133,308.01825,96.879517,308.015991,96.497002C308.015808,96.437004,308.014801,96.376968,308.013,96.317001C307.983002,95.211662,307.674988,94.328331,307.088989,93.667C306.722015,93.246735,306.24411,92.938293,305.709991,92.777C305.346802,92.669724,304.969666,92.617149,304.591003,92.621002C304.3255,92.619766,304.060425,92.642525,303.799011,92.689003C303.123688,92.79821,302.50592,93.134781,302.048004,93.642998C301.901276,93.806999,301.772217,93.985985,301.662994,94.177002C301.30899,94.793663,301.131989,95.567001,301.131989,96.497002C301.130707,96.804756,301.154449,97.112106,301.203003,97.416C301.26532,97.812576,301.384186,98.198174,301.556,98.560997C301.582031,98.615654,301.609375,98.669678,301.638,98.723C301.897034,99.214378,302.284424,99.626328,302.759003,99.915001C302.986206,100.052361,303.229767,100.160553,303.484009,100.237C303.827698,100.338814,304.18454,100.389359,304.542999,100.387001C304.800751,100.387871,305.058075,100.366119,305.312012,100.321999C305.998779,100.214828,306.627716,99.874405,307.092987,99.358002C307.23584,99.198524,307.362152,99.024963,307.470001,98.839996C307.674683,98.489334,307.821686,98.088333,307.911011,97.637001z"/>
    <path transform="translate(17,-16.500008)" style="stroke:#808080;stroke-width:0.05mm;fill:none" d="M326.252014,97.637001C326.323761,97.261299,326.358582,96.879478,326.355988,96.497002C326.35614,96.437004,326.355469,96.376984,326.354004,96.317001C326.324005,95.211662,326.015991,94.328331,325.429993,93.667C325.063019,93.246735,324.585114,92.938293,324.050995,92.777C323.687805,92.669724,323.310669,92.617149,322.932007,92.621002C322.666504,92.619766,322.401428,92.642525,322.140015,92.689003C321.464691,92.79821,320.846924,93.134781,320.389008,93.642998C320.242279,93.806999,320.11322,93.985985,320.003998,94.177002C319.649994,94.793663,319.472992,95.567001,319.472992,96.497002C319.47171,96.804756,319.495453,97.112106,319.544006,97.416C319.605988,97.812531,319.724518,98.19812,319.895996,98.560997C319.922333,98.615662,319.950012,98.669685,319.979004,98.723C320.238037,99.214378,320.625427,99.626328,321.100006,99.915001C321.327209,100.052361,321.57077,100.160553,321.825012,100.237C322.168701,100.338814,322.525543,100.389359,322.884003,100.387001C323.141754,100.387871,323.399078,100.366119,323.653015,100.321999C324.339783,100.214828,324.968719,99.874405,325.43399,99.358002C325.576508,99.198479,325.702484,99.024925,325.809998,98.839996C326.01535,98.489334,326.162689,98.088333,326.252014,97.637001z"/>
    <path transform="translate(17,-16.500008)" style="stroke:#808080;stroke-width:0.05mm;fill:none" d="M302.308014,96.497002C302.306396,96.771606,302.324432,97.045975,302.362,97.318001C302.402679,97.596001,302.464996,97.847336,302.549011,98.071999C302.629395,98.291222,302.741577,98.497429,302.881989,98.683998C303.264648,99.185333,303.827332,99.435997,304.570007,99.435997C304.80481,99.438454,305.038879,99.409531,305.265991,99.349998C305.662659,99.246819,306.013306,99.013756,306.261993,98.688004C306.429688,98.465179,306.557892,98.21521,306.640991,97.948997C306.715668,97.721664,306.769318,97.469002,306.802002,97.191002C306.828125,96.960609,306.84082,96.728874,306.839996,96.497002C306.839996,95.885666,306.760651,95.369003,306.60199,94.946999C306.520874,94.723923,306.406219,94.514519,306.261993,94.325996C305.97525,93.958641,305.561462,93.711815,305.10199,93.634003C304.922333,93.600296,304.739838,93.583893,304.557007,93.584999C304.330261,93.582977,304.104126,93.60952,303.884003,93.664001C303.483154,93.759903,303.127136,93.98996,302.875,94.316002C302.602997,94.667336,302.42868,95.142334,302.35199,95.740997C302.321411,95.991821,302.306702,96.244331,302.308014,96.497002z"/>
    <path transform="translate(17,-16.500008)" style="stroke:#808080;stroke-width:0.05mm;fill:none" d="M320.64801,96.497002C320.646698,96.771629,320.66507,97.046005,320.703003,97.318001C320.743011,97.596001,320.805328,97.847336,320.890015,98.071999C320.970398,98.291222,321.082581,98.497429,321.222992,98.683998C321.605652,99.185333,322.168335,99.435997,322.911011,99.435997C323.145477,99.43837,323.379181,99.409447,323.605988,99.349998C324.002991,99.247025,324.354034,99.013947,324.602997,98.688004C324.770691,98.465179,324.898895,98.21521,324.981995,97.948997C325.056671,97.721664,325.110321,97.469002,325.143005,97.191002C325.169128,96.960609,325.181824,96.728874,325.181,96.497002C325.181,95.885666,325.101654,95.369003,324.942993,94.946999C324.861877,94.723923,324.747223,94.514519,324.602997,94.325996C324.31601,93.958427,323.901825,93.711571,323.441986,93.634003C323.262329,93.600296,323.079834,93.583893,322.897003,93.584999C322.670593,93.583069,322.444824,93.609604,322.225006,93.664001C321.824158,93.759903,321.46814,93.98996,321.216003,94.316002C320.943329,94.667336,320.769012,95.142334,320.692993,95.740997C320.662109,95.991806,320.647064,96.244301,320.64801,96.497002z"/>
    <path transform="translate(17,-16.500008)" style="stroke:#808080;stroke-width:0.05mm;fill:none" d="M296.291992,93.584999C296.084717,93.583206,295.877747,93.601624,295.674011,93.639999C295.440002,93.686668,295.233673,93.762001,295.054993,93.865997C294.885345,93.964638,294.736572,94.095413,294.617004,94.250999C294.495911,94.413895,294.401093,94.594757,294.335999,94.787003C294.20932,95.14167,294.134674,95.588333,294.112,96.126999C294.10675,96.250259,294.104065,96.373627,294.104004,96.497002C294.103271,96.755821,294.115967,97.014496,294.141998,97.272003C294.209991,97.928673,294.372986,98.423332,294.631012,98.755997C294.843536,99.026665,295.135559,99.223907,295.466003,99.32C295.652008,99.377998,295.858673,99.41433,296.085999,99.429001C296.163574,99.433815,296.241272,99.436142,296.319,99.435997C296.536377,99.438377,296.75293,99.409409,296.962006,99.349998C297.338593,99.241913,297.663696,99.001976,297.877991,98.674004C298.019165,98.458855,298.127686,98.223969,298.200012,97.976997C298.327332,97.561661,298.390991,97.063667,298.390991,96.483002C298.390991,95.558334,298.237335,94.857002,297.929993,94.378998C297.913269,94.353249,297.895935,94.327904,297.877991,94.303001C297.627075,93.951721,297.248871,93.712372,296.824005,93.636002C296.648865,93.600937,296.470612,93.583847,296.291992,93.584999z"/>
    <path transform="translate(17,-31.500008)" style="stroke:#808080;stroke-width:0.05mm;fill:none" d="M206.705994,53.637001L205.570999,53.637001L205.570999,48.790001C205.571884,48.621624,205.559509,48.453438,205.533997,48.286999C205.505997,48.110332,205.46167,47.951668,205.401001,47.811001C205.341476,47.668491,205.257919,47.537254,205.154007,47.423C205.009293,47.269783,204.828934,47.154705,204.628998,47.088001C204.408997,47.010666,204.148666,46.972,203.848007,46.972C203.632721,46.970501,203.41777,46.98925,203.205994,47.028C202.738663,47.116665,202.377335,47.312,202.121994,47.613998C201.9832,47.783344,201.874908,47.97554,201.802002,48.181999C201.672668,48.528667,201.59967,48.959667,201.582993,49.474998C201.580292,49.556629,201.578964,49.638325,201.578995,49.720001L201.578995,53.637001L200.444,53.637001L200.444,43L201.578995,43L201.578995,46.220001C201.579178,46.350708,201.576843,46.48138,201.572006,46.612C201.566666,46.733997,201.559326,46.847664,201.550003,46.952999C201.54335,47.030212,201.534683,47.107239,201.524002,47.183998L201.591995,47.183998C201.789963,46.86742,202.063049,46.604641,202.386993,46.418999C202.439041,46.388271,202.492065,46.359257,202.546005,46.332001C202.958664,46.124668,203.429321,46.021,203.957993,46.021C204.216919,46.019558,204.47551,46.039967,204.731003,46.082001C205.270996,46.174,205.700333,46.371334,206.018997,46.674C206.238434,46.887798,206.405167,47.149693,206.505997,47.438999C206.639328,47.801666,206.705994,48.238335,206.705994,48.749001L206.705994,53.637001z"/>
    <path transform="translate(17,-31.500008)" style="stroke:#808080;stroke-width:0.05mm;fill:none" d="M196.315002,46.144001L198.906006,46.144001L198.906006,46.862L197.518005,47.026001C197.577423,47.101059,197.63092,47.180634,197.677994,47.264C197.72467,47.346001,197.768997,47.435669,197.811005,47.533001C197.828064,47.572369,197.844391,47.612034,197.860001,47.652C197.924271,47.819702,197.967606,47.99469,197.988998,48.173C198.003296,48.289116,198.010315,48.40601,198.009995,48.522999C198.013016,48.796585,197.97287,49.068932,197.891006,49.330002C197.771576,49.698952,197.552505,50.027721,197.257996,50.279999C196.971359,50.526093,196.632996,50.704502,196.268005,50.801998C196.018005,50.872002,195.74501,50.914669,195.449005,50.93C195.364075,50.9342,195.279037,50.936203,195.194,50.936001C195.053009,50.936497,194.912109,50.928818,194.772003,50.912998C194.702667,50.905014,194.633621,50.894676,194.565002,50.882C194.449844,50.94138,194.340668,51.011703,194.238998,51.091999C193.972992,51.306667,193.839996,51.558002,193.839996,51.846001C193.839996,52.044666,193.919327,52.193001,194.078003,52.291C194.082962,52.294067,194.087967,52.29707,194.093002,52.299999C194.229004,52.379333,194.443329,52.426666,194.735992,52.442001C194.810944,52.445621,194.885971,52.447289,194.960999,52.446999L196.287994,52.446999C196.523926,52.445736,196.759598,52.462452,196.992996,52.497002C197.238998,52.535,197.461334,52.594334,197.660004,52.674999C197.838181,52.746277,198.005478,52.842213,198.156998,52.959999C198.489777,53.220886,198.710464,53.598938,198.774002,54.016998C198.798569,54.160007,198.810623,54.304893,198.809998,54.450001C198.813751,54.739365,198.766357,55.027119,198.669998,55.299999C198.518661,55.712666,198.245667,56.052998,197.850998,56.320999C197.838074,56.329781,197.825073,56.338448,197.811996,56.347C197.540009,56.520569,197.24472,56.654579,196.934998,56.744999C196.646332,56.832333,196.32634,56.897331,195.975006,56.939999C195.618179,56.981449,195.259201,57.001488,194.899994,57C194.614792,57.001484,194.329819,56.98378,194.046997,56.946999C193.758331,56.907665,193.496338,56.846668,193.261002,56.764C193.039108,56.688652,192.828247,56.584064,192.634003,56.452999C192.391586,56.291969,192.191589,56.074825,192.050995,55.82C191.90834,55.556667,191.837006,55.252666,191.837006,54.908001C191.837006,54.452667,191.983002,54.058666,192.274994,53.726002C192.463516,53.51387,192.695419,53.344719,192.955002,53.23C193.131622,53.150875,193.315933,53.090218,193.505005,53.049C193.323837,52.966282,193.166611,52.838982,193.048004,52.679001C193.03949,52.667793,193.031158,52.656464,193.022995,52.645C192.904907,52.478409,192.837845,52.281052,192.830002,52.077C192.829102,52.05468,192.828766,52.032333,192.828995,52.009998C192.827667,51.86805,192.849625,51.726841,192.893997,51.591999C192.929993,51.485031,192.981552,51.383949,193.046997,51.292C193.110428,51.204372,193.182449,51.123302,193.261993,51.049999C193.337997,50.978668,193.424667,50.908333,193.522003,50.839001C193.592255,50.789074,193.664307,50.741707,193.738007,50.696999C193.390335,50.552738,193.090714,50.312778,192.873993,50.005001C192.845123,49.9655,192.817459,49.925148,192.791,49.883999C192.576035,49.54409,192.452072,49.154625,192.431,48.752998C192.427063,48.69241,192.425064,48.631714,192.425003,48.570999C192.423065,48.310123,192.452271,48.049953,192.511993,47.796001C192.609009,47.363941,192.836655,46.972206,193.164001,46.674C193.430527,46.43782,193.746094,46.263645,194.087997,46.164001C194.333328,46.089333,194.603333,46.041332,194.897995,46.02C195.016815,46.011761,195.135895,46.007755,195.255005,46.007999C195.447586,46.007233,195.639999,46.01926,195.830994,46.043999C195.994583,46.065235,196.156372,46.098663,196.315002,46.144001z"/>
    <path transform="translate(17,-31.500008)" style="stroke:#808080;stroke-width:0.05mm;fill:none" d="M212.481995,52.700001L212.481995,53.568001C212.370667,53.621998,212.212006,53.667332,212.005997,53.703999C211.983353,53.707851,211.960709,53.711517,211.938004,53.715C211.699341,53.753666,211.484009,53.772999,211.292007,53.772999C209.843338,53.772999,209.119003,53.009666,209.119003,51.483002L209.119003,47.026001L208.044998,47.026001L208.044998,46.479L209.119003,46.007999L209.597,44.408001L210.253006,44.408001L210.253006,46.144001L212.427002,46.144001L212.427002,47.026001L210.253006,47.026001L210.253006,51.436001C210.252197,51.570377,210.263229,51.704563,210.285995,51.837002C210.332672,52.097668,210.429001,52.310333,210.574997,52.474998C210.742676,52.663937,210.972626,52.786369,211.223007,52.82C211.300461,52.831699,211.378677,52.837383,211.457001,52.837002C211.639389,52.837353,211.821533,52.824318,212.001999,52.798C212.014038,52.796059,212.026001,52.794067,212.037994,52.792C212.215988,52.764,212.358994,52.735001,212.466995,52.705002C212.472015,52.703354,212.47699,52.701694,212.481995,52.700001z"/>
    <path transform="translate(17,-31.500008)" style="stroke:#808080;stroke-width:0.05mm;fill:none" d="M187.832001,46.09L187.673996,47.143002C187.363998,47.074333,187.090668,47.040001,186.854004,47.040001C186.303238,47.036236,185.776123,47.263691,185.401001,47.667C185.365967,47.703041,185.331955,47.740051,185.298996,47.778C184.943924,48.185894,184.725372,48.694664,184.673996,49.233002C184.659851,49.360512,184.652847,49.488708,184.653,49.617001L184.653,53.637001L183.518005,53.637001L183.518005,46.144001L184.455002,46.144001L184.584,47.532001L184.639008,47.532001C184.761719,47.31451,184.905396,47.109535,185.067993,46.919998C185.236328,46.723278,185.430008,46.549763,185.643997,46.403999C186.024261,46.143433,186.475052,46.005268,186.936005,46.007999C187.091553,46.007706,187.24704,46.014381,187.401993,46.028C187.546387,46.040451,187.689957,46.061153,187.832001,46.09z"/>
    <path transform="translate(17,-31.500008)" style="stroke:#808080;stroke-width:0.05mm;fill:none" d="M190.367996,46.144001L190.367996,53.637001L189.233002,53.637001L189.233002,46.144001L190.367996,46.144001z"/>
    <path transform="translate(17,-31.500008)" style="stroke:#808080;stroke-width:0.05mm;fill:none" d="M195.925003,53.466L194.565002,53.466C194.407455,53.465111,194.250137,53.4785,194.095001,53.506001C193.917007,53.538002,193.757675,53.590668,193.617004,53.664001C193.525681,53.71096,193.440109,53.768341,193.362,53.834999C193.158569,54.010452,193.020142,54.249279,192.968994,54.513C192.942932,54.638306,192.930206,54.766018,192.931,54.894001C192.92897,55.038479,192.954422,55.182026,193.005997,55.317001C193.08667,55.521,193.232666,55.687668,193.444,55.817001C193.583725,55.900749,193.734085,55.965324,193.891006,56.008999C194.171661,56.090332,194.509338,56.131332,194.904007,56.132L194.914001,56.132C195.764664,56.132,196.417999,56.018333,196.873993,55.791C196.926987,55.764778,196.978714,55.736084,197.029007,55.705002C197.172592,55.617783,197.302078,55.509205,197.412994,55.382999C197.614029,55.15107,197.72197,54.852871,197.716003,54.546001C197.716858,54.443653,197.707489,54.341476,197.688004,54.241001C197.664673,54.124336,197.626007,54.022335,197.572006,53.935001C197.513824,53.840363,197.434387,53.760586,197.339996,53.702C197.260208,53.653778,197.1745,53.616127,197.085007,53.59C196.815002,53.507332,196.428329,53.466,195.925003,53.466z"/>
    <path transform="translate(17,-31.500008)" style="stroke:#808080;stroke-width:0.05mm;fill:none" d="M193.546005,48.543999C193.544968,48.699856,193.560379,48.855381,193.591995,49.007999C193.656662,49.308666,193.789658,49.550335,193.990997,49.733002C194.160187,49.88419,194.362152,49.994068,194.580994,50.054001C194.731003,50.097332,194.89534,50.123665,195.074005,50.132999C195.125305,50.135685,195.176636,50.13702,195.227997,50.137001C195.446152,50.139664,195.663712,50.113438,195.875,50.058998C196.369003,49.924999,196.682663,49.615669,196.815994,49.131001C196.86734,48.932499,196.891891,48.728016,196.889008,48.522999C196.892334,48.297565,196.86441,48.072762,196.806,47.855C196.66333,47.355667,196.337997,47.039665,195.830002,46.907001C195.626556,46.856689,195.417542,46.832493,195.207993,46.834999C195.044846,46.833641,194.882004,46.849056,194.722,46.881001C194.524002,46.922333,194.349335,46.991333,194.197998,47.088001C194.118088,47.13913,194.043976,47.198814,193.977005,47.265999C193.824112,47.421875,193.710922,47.612225,193.647003,47.820999C193.579666,48.028999,193.546005,48.27,193.546005,48.543999z"/>
    <path transform="translate(17,-31.500008)" style="stroke:#808080;stroke-width:0.05mm;fill:none" d="M189.153,43.905998C189.141907,43.97477,189.136551,44.044342,189.136993,44.113998C189.136948,44.156734,189.138962,44.199455,189.143005,44.242001C189.150345,44.318665,189.164673,44.388332,189.186005,44.451C189.214493,44.539215,189.263489,44.619411,189.328995,44.685001C189.39415,44.750046,189.47261,44.800198,189.559006,44.832001C189.638641,44.860081,189.72258,44.873959,189.807007,44.873001C189.983093,44.875607,190.152939,44.807953,190.279007,44.685001C190.371002,44.597668,190.431,44.479,190.459,44.328999C190.471573,44.258038,190.4776,44.186066,190.477005,44.113998C190.476944,44.072929,190.47493,44.031883,190.470993,43.991001C190.453003,43.797001,190.389008,43.649002,190.279007,43.547001C190.147003,43.423668,189.98967,43.362,189.807007,43.362C189.787994,43.362038,189.768982,43.362705,189.75,43.363998C189.592728,43.371216,189.443298,43.43475,189.328995,43.542999C189.279221,43.590496,189.239151,43.647213,189.210999,43.709999C189.184998,43.768002,189.165665,43.833332,189.153,43.905998z"/>
    <path style="stroke:none;fill:#000000;fill-rule:evenodd" d="M220,207L210,207L210,213L220,213L220,207z"/>
    <path style="stroke:none;fill:#000000;fill-rule:evenodd" d="M221.25,219.099991L208.75,219.099991L208.75,224.900009L221.25,224.900009L221.25,219.099991z"/>
    <path style="stroke:none;fill:#000000;fill-rule:evenodd" d="M140.5,211.25C140.5,209.317001,138.932999,207.75,137,207.75C135.067001,207.75,133.5,209.317001,133.5,211.25C133.5,213.182999,135.067001,214.75,137,214.75C138.932999,214.75,140.5,213.182999,140.5,211.25z"/>
    <path style="stroke:none;fill:#000000;fill-rule:evenodd" d="M60.5,211.25C60.5,209.317001,58.932995,207.75,57,207.75C55.067005,207.75,53.5,209.317001,53.5,211.25C53.5,213.182999,55.067005,214.75,57,214.75C58.932995,214.75,60.5,213.182999,60.5,211.25z"/>
    <path style="stroke:none;fill:#000000;fill-rule:evenodd" d="M103.25,211.25C103.25,207.798218,100.451782,205,97,205C93.548218,205,90.75,207.798218,90.75,211.25C90.75,214.701782,93.548218,217.5,97,217.5C100.451782,217.5,103.25,214.701782,103.25,211.25z"/>
    <path style="stroke:none;fill:#000000;fill-rule:evenodd" d="M162.5,150L31.5,150L31.5,183L162.5,183L162.5,150z"/>
</svg>
